<svg width="45" height="45" viewBox="0 0 45 45" fill="none" xmlns="http://www.w3.org/2000/svg">
<path d="M22.5 13.125V5.625H3.75V39.375H41.25V13.125H22.5ZM11.25 35.625H7.5V31.875H11.25V35.625ZM11.25 28.125H7.5V24.375H11.25V28.125ZM11.25 20.625H7.5V16.875H11.25V20.625ZM11.25 13.125H7.5V9.375H11.25V13.125ZM18.75 35.625H15V31.875H18.75V35.625ZM18.75 28.125H15V24.375H18.75V28.125ZM18.75 20.625H15V16.875H18.75V20.625ZM18.75 13.125H15V9.375H18.75V13.125ZM37.5 35.625H22.5V31.875H26.25V28.125H22.5V24.375H26.25V20.625H22.5V16.875H37.5V35.625ZM33.75 20.625H30V24.375H33.75V20.625ZM33.75 28.125H30V31.875H33.75V28.125Z" fill="url(#paint0_linear_13_100)"/>
<defs>
<linearGradient id="paint0_linear_13_100" x1="41" y1="39" x2="3.24012" y2="6.3745" gradientUnits="userSpaceOnUse">
<stop offset="0.122845" stop-color="#AA771C"/>
<stop offset="0.535136" stop-color="#B38728"/>
<stop offset="1" stop-color="#FCF6BA"/>
</linearGradient>
</defs>
</svg>
