<svg width="50" height="50" viewBox="0 0 50 50" fill="none" xmlns="http://www.w3.org/2000/svg">
<path d="M25 25C23.625 25 22.5 23.875 22.5 22.5C22.5 21.125 23.625 20 25 20C26.375 20 27.5 21.125 27.5 22.5C27.5 23.875 26.375 25 25 25ZM32.5 22.75C32.5 18.2125 29.1875 15 25 15C20.8125 15 17.5 18.2125 17.5 22.75C17.5 25.675 19.9375 29.55 25 34.175C30.0625 29.55 32.5 25.675 32.5 22.75ZM25 12.5C30.25 12.5 35 16.525 35 22.75C35 26.9 31.6625 31.8125 25 37.5C18.3375 31.8125 15 26.9 15 22.75C15 16.525 19.75 12.5 25 12.5Z" fill="#AA771C"/>
<rect x="1" y="1" width="48" height="48" rx="4" stroke="#AA771C" stroke-width="2"/>
</svg>
