<svg width="121" height="104" viewBox="0 0 121 104" fill="none" xmlns="http://www.w3.org/2000/svg">
<g clip-path="url(#clip0_13_63)">
<path d="M59.191 0.0513306C58.0661 0.202332 56.6765 0.881813 55.7217 1.76893C54.3794 3.01466 53.642 4.55296 53.6231 6.16676C53.6231 6.94062 53.6893 7.63898 53.7933 7.80886C53.8216 7.84661 53.8594 8.08254 53.8972 8.33735C53.9634 8.90359 54.6535 10.3853 55.0694 10.8666C55.2396 11.0553 55.6555 11.3951 55.9864 11.6027L56.5914 11.9991L56.6008 13.896C56.6103 14.9435 56.6387 16.8027 56.6765 18.039C56.7048 19.2658 56.7048 20.2756 56.667 20.2756C56.4496 20.2756 54.6819 19.615 53.8972 19.2281C52.224 18.4259 51.118 17.5577 50.3996 16.4724C49.7851 15.5475 49.7473 15.3399 49.7379 12.3482C49.7284 9.34715 49.6906 9.09235 49.0572 7.87492C48.1876 6.14788 47.1005 4.95877 44.983 3.38273C43.565 2.32574 43.3097 2.21249 42.4779 2.28799C40.9654 2.42955 39.5947 2.93917 37.5339 4.09053C35.8418 5.05315 31.966 6.95006 30.2172 7.69561C26.918 9.09235 23.8269 10.0927 20.1496 10.9326C18.76 11.2535 16.6897 11.6121 14.9504 11.8197C12.1522 12.1595 11.3393 12.1972 7.24608 12.1878C2.38717 12.1595 1.28115 12.2633 0.373654 12.8201C-0.259705 13.1976 -0.0990022 13.7261 0.940842 14.6698C1.70654 15.3588 2.41553 15.774 4.51412 16.7555C7.08537 17.9446 8.6735 18.5014 10.1198 18.7185C10.3562 18.7562 10.5547 18.8034 10.5547 18.8129C10.5547 18.8317 10.4318 19.0865 10.2711 19.3791C9.65662 20.5493 10.0631 21.3421 11.6418 22.0687C12.7005 22.5595 15.0638 23.0785 16.9355 23.2484C17.3042 23.2767 17.7107 23.3334 17.8525 23.3522C18.1077 23.3994 18.1172 23.4089 17.9659 23.692C17.7769 24.0506 17.843 24.513 18.1172 24.9C18.5237 25.4662 20.0362 26.174 21.5676 26.5138C22.4751 26.7119 24.6871 26.6648 25.7742 26.4194C26.2658 26.3156 26.7195 26.2212 26.7857 26.2212C26.8708 26.2212 26.9086 26.3533 26.9086 26.6176C26.918 28.3446 29.2151 29.496 31.9471 29.1562C32.779 29.0524 33.5258 28.8826 33.9323 28.7221C34.093 28.6561 34.093 28.6749 33.9133 28.9675C33.6676 29.3733 33.6676 29.6187 33.9133 29.9395C34.4616 30.6379 36.1821 31.0531 39.2638 31.223C40.1902 31.2702 41.0221 31.3174 41.1166 31.3174C41.2395 31.3174 41.145 31.4306 40.833 31.6571C38.4508 33.4408 37.2219 36.0455 37.6946 38.3199C37.8647 39.1693 38.4792 40.3112 39.1315 41.0096C40.5211 42.5007 43.5177 43.9918 46.5711 44.7185C47.0626 44.8412 47.5258 44.9544 47.6015 44.9733C47.6771 44.9922 47.5637 45.1243 47.3179 45.3036C46.5994 45.8132 45.5029 47.0118 45.0491 47.7951C44.463 48.7766 44.1227 49.8335 44.0471 50.8433C43.9998 51.5889 44.0187 51.7305 44.3023 52.5515C44.7466 53.8727 45.1909 54.7127 45.8715 55.5432C47.2612 57.223 49.4165 58.7236 51.8932 59.7239L52.432 59.9504L51.9405 60.2335C51.2031 60.6582 50.0498 61.8001 49.7095 62.4325C48.8871 63.9802 48.6791 65.9337 49.1612 67.5475C49.5015 68.6989 50.3712 69.9352 51.3638 70.6902C51.931 71.1148 52.9708 71.7849 55.1734 73.125C55.873 73.5591 56.5441 73.9744 56.6576 74.0688L56.8655 74.2292L56.27 74.8143C55.9486 75.1352 55.6555 75.3711 55.6272 75.3428C55.5988 75.3145 55.5232 75.3711 55.4476 75.456C55.3247 75.607 55.3341 75.6165 55.4854 75.4938C55.5705 75.4277 55.6461 75.4089 55.6461 75.4655C55.6461 75.5599 55.3814 75.8147 55.2774 75.8147C55.249 75.8147 55.2301 75.8524 55.249 75.8902C55.2585 75.9374 55.164 76.0978 55.0316 76.2582C54.6346 76.7301 53.9729 78.1363 53.8594 78.7403C53.746 79.3631 53.7176 81.562 53.8311 81.496C53.8689 81.4677 53.8972 81.6658 53.9067 81.9301C53.9067 82.2698 53.9918 82.5813 54.1714 82.921C54.4455 83.4684 55.6177 84.7613 56.0147 84.9501C56.1471 85.0161 56.2511 85.1199 56.2416 85.1766C56.2322 85.2332 56.2889 85.337 56.3834 85.4125C56.5252 85.5257 56.5347 85.5163 56.4118 85.3653C56.2322 85.1388 56.4023 85.1671 56.7237 85.4219L56.9884 85.639L56.5252 86.2052C55.4003 87.5642 54.7858 88.8099 54.644 90.0179C54.5212 91.0844 55.0978 92.4717 56.1849 93.7363L56.7994 94.4535L56.4307 95.284C56.0998 96.0484 56.0715 96.1711 56.0715 97.0016C56.0715 97.8604 56.0904 97.9265 56.4212 98.5588C56.8939 99.427 57.1397 99.6724 57.9243 100.069L58.5765 100.399L58.586 101.701C58.5955 102.409 58.5955 103.126 58.586 103.287C58.5482 103.768 58.7372 103.863 59.8622 103.938C60.5239 103.985 60.9398 103.976 61.0911 103.9C61.3085 103.806 61.318 103.759 61.318 102.891C61.318 102.06 61.3274 101.994 61.4881 102.06C62.0837 102.334 62.9722 101.909 63.3787 101.154C63.5772 100.777 63.5962 100.654 63.5489 100.04C63.4922 99.3138 63.2369 98.606 62.9155 98.2662C62.7359 98.068 62.7265 98.0397 62.8683 97.6528C62.9439 97.4263 63.133 96.9544 63.2937 96.6052C63.6151 95.8974 63.634 95.7653 63.4827 95.1519C63.3504 94.6517 62.7737 93.9722 62.0837 93.5003C61.819 93.321 61.6015 93.1323 61.6015 93.0851C61.6015 93.0285 61.8851 92.8869 62.2349 92.7642C62.8966 92.5377 63.9365 91.9148 64.324 91.5185C65.2883 90.5276 66.139 88.8949 65.8649 88.5646C65.7704 88.4608 65.7893 88.4041 65.9311 88.3003C66.139 88.1493 66.2052 87.2905 66.054 86.6205C66.0067 86.3845 65.9405 86.0825 65.9122 85.941C65.8555 85.6107 65.2505 84.5726 64.9101 84.2139L64.636 83.9308L64.9196 83.5061C65.6286 82.468 66.0729 81.3167 66.2525 80.1087C66.3659 79.2876 66.2998 77.9192 66.0918 77.1831C65.8933 76.4375 65.2694 75.239 64.7683 74.635C64.2673 74.031 64.2201 74.1065 65.4773 73.4364C68.4362 71.851 69.4571 71.1715 70.2512 70.2655C70.4875 69.9918 70.8751 69.3689 71.1114 68.8782C71.3572 68.3874 71.603 67.9156 71.6691 67.8401C71.8393 67.6325 72.189 66.4056 72.189 66.0092C72.189 65.7544 72.1512 65.6695 72.0378 65.6695C71.9054 65.6695 71.9055 65.6412 72 65.5279C72.0945 65.4147 72.0851 65.2731 71.9527 64.7918C71.7542 64.0368 71.1397 62.7722 70.8278 62.4325C70.686 62.2815 70.6104 62.121 70.6387 62.0644C70.6765 62.0078 70.6671 61.9889 70.6104 62.0172C70.5064 62.0833 69.2208 60.8281 69.3058 60.7432C69.3342 60.7148 69.2775 60.6394 69.1924 60.5639C69.0412 60.4412 69.0317 60.4506 69.1546 60.5922C69.2302 60.696 69.2397 60.762 69.183 60.762C69.079 60.762 68.9277 60.5827 68.9277 60.46C68.9277 60.4317 68.8899 60.3657 68.8426 60.3185C68.7954 60.2713 68.7859 60.2996 68.8332 60.3751C68.8804 60.46 68.8615 60.4884 68.7765 60.46C68.7008 60.4317 68.6441 60.3657 68.6441 60.3185C68.6441 60.2619 68.6063 60.1769 68.559 60.1297C68.5118 60.0825 68.5023 60.1014 68.5401 60.1675C68.6347 60.3374 68.5023 60.3185 68.1904 60.1109L67.9162 59.9315L68.6158 59.6767C72.8413 58.0818 75.8758 55.2695 76.6793 52.1835C76.8589 51.4662 76.8589 50.2299 76.6793 49.5127C76.3295 48.2009 75.4504 46.5588 74.628 45.7188C74.2782 45.3508 74.004 45.0488 74.0135 45.0488C74.0229 45.0394 74.4105 44.9355 74.8832 44.8129C76.8116 44.3315 78.7495 43.5105 80.1675 42.5668C80.5362 42.3214 81.2168 41.7646 81.68 41.321C82.9089 40.1413 83.2776 39.3109 83.2776 37.6876C83.2681 35.6869 82.4268 33.7617 80.8765 32.2517L80.1486 31.5345L80.9615 31.4684C81.4153 31.4401 82.4268 31.3646 83.2019 31.3174C84.7239 31.2136 85.3005 31.0909 86.2458 30.6379C87.0399 30.2698 87.2195 29.9395 87.0116 29.2884C86.8792 28.892 86.8792 28.8542 87.021 28.9109C87.7111 29.1845 88.6469 29.4488 89.233 29.5432C90.1122 29.6753 90.6794 29.5715 91.8137 29.0902C93.4491 28.3824 94.2621 27.5236 94.0447 26.6931C93.9596 26.3344 93.9596 26.3156 94.1581 26.3628C95.7935 26.7591 97.6652 26.8818 99.0548 26.6931C100.804 26.4571 102.458 25.7116 102.921 24.966C103.11 24.6452 103.167 23.9185 103.006 23.8147C102.959 23.7864 102.912 23.7014 102.912 23.6354C102.912 23.541 103.224 23.4938 104.074 23.4466C106.268 23.3239 108.016 22.9747 109.113 22.4368C109.775 22.1065 110.465 21.4836 110.692 21.0023C110.937 20.4927 110.9 19.8038 110.616 19.3791C110.474 19.1903 110.38 19.0205 110.399 19.011C110.417 18.9922 110.9 18.8695 111.467 18.7185C112.837 18.3693 115.39 17.5294 116.449 17.0669C118.018 16.3874 120.164 14.9624 120.674 14.2546C121.175 13.5374 120.958 13.056 119.994 12.7352C118.954 12.3954 117.914 12.3199 115.768 12.452C113.272 12.5936 110.578 12.4804 106.787 12.0557C106.296 12.0085 105.511 11.9236 105.039 11.8669C98.913 11.1969 95.1601 9.98889 86.7941 6.00632C85.707 5.48726 84.7428 5.02483 84.6672 4.97765C84.5916 4.93046 84.1662 4.71339 83.7219 4.4869C83.2776 4.26041 82.4551 3.83572 81.8974 3.5526C80.4511 2.80704 79.4396 2.49561 78.4281 2.48618C77.6719 2.48618 77.5868 2.50505 77.0101 2.83536C76.1026 3.34498 73.5881 5.54388 72.8697 6.44987C72.1418 7.37474 71.6124 8.50723 71.1965 10.0266C70.9223 11.0364 70.9034 11.5555 71.1114 13.1599C71.2343 14.0847 71.2437 14.4905 71.1681 15.0001C70.8845 16.8971 69.0979 18.6902 66.4699 19.7C65.449 20.0963 63.8136 20.5399 63.719 20.4455C63.6907 20.4078 63.7096 18.8412 63.7663 16.9537C63.823 15.0662 63.8703 13.2165 63.8703 12.839C63.8703 12.1689 63.8797 12.1312 64.1823 11.8952C64.948 11.2629 65.742 10.3664 66.0634 9.75296C66.659 8.61104 66.8386 7.91267 66.8386 6.68581C66.848 5.16639 66.5266 4.03391 65.7609 2.9203C65.3072 2.24081 64.324 1.32537 63.6529 0.938438C62.3672 0.202324 60.6373 -0.137421 59.191 0.0513306ZM36.0214 5.43064C35.9552 5.80814 35.7945 6.08182 35.7945 5.81757C35.7945 5.6477 35.9836 5.08145 36.0403 5.08145C36.0687 5.08145 36.0592 5.24189 36.0214 5.43064ZM56.6008 31.4212L56.9412 31.5061L56.9979 33.4125C57.0357 34.4695 57.0924 36.8855 57.1302 38.7918L57.1869 42.2648H56.9128C56.3929 42.2648 54.1808 41.9722 51.8176 41.6041C50.5225 41.3965 48.8776 41.17 48.1781 41.0851C46.1362 40.8492 45.484 40.6604 44.4914 39.9903C43.2152 39.141 42.5062 37.8764 42.5062 36.4513C42.5062 35.1962 43.1774 34.46 44.7088 34.0259C45.3044 33.8655 45.8054 33.8277 48.698 33.7711C52.139 33.6956 52.4604 33.6579 53.6987 33.2332C54.6251 32.9123 55.0789 32.5254 55.0789 32.0535C55.0789 31.8742 55.0127 31.6477 54.9371 31.5439C54.8615 31.4495 54.7953 31.3268 54.7953 31.2796C54.7953 31.1853 56.0904 31.2891 56.6008 31.4212ZM66.139 31.5533C66.139 31.5911 66.0729 31.7421 65.9878 31.8931C65.7893 32.2894 65.8933 32.6575 66.2903 33.0161C67.1033 33.7239 68.2565 33.8938 72.4254 33.9127C75.3086 33.9221 75.5922 33.941 76.131 34.1203C77.7475 34.6582 78.4281 35.4887 78.4281 36.9326C78.4281 38.3483 77.4922 39.6129 75.7812 40.5094C74.6469 41.104 73.711 41.3021 70.6293 41.6041C70.0621 41.6608 68.975 41.7835 68.2187 41.8873C66.1012 42.1704 63.1046 42.4724 63.0479 42.4158C62.9912 42.3591 63.1802 35.2339 63.2937 33.0256L63.3504 31.8459L63.6718 31.7704C64.2673 31.6099 66.139 31.4495 66.139 31.5533ZM64.5415 46.3228C68.3983 46.9929 70.7711 47.9744 71.3855 49.1541C71.7258 49.8147 71.6219 51.268 71.1776 52.1646C70.8467 52.8346 69.7312 53.9954 68.6914 54.7787C67.3963 55.7602 66.0634 56.3453 63.8514 56.9305C62.424 57.308 62.5563 57.4684 62.6036 55.4016C62.6319 54.4296 62.6887 52.476 62.7359 51.0698C62.7926 49.6542 62.8305 47.9649 62.8305 47.3138V46.1341H63.1519C63.322 46.1341 63.9554 46.219 64.5415 46.3228ZM57.3571 49.6354C57.3949 51.3718 57.4516 53.7501 57.4894 54.9297L57.5556 57.072L56.9601 56.9305C54.7764 56.4397 52.5076 55.3733 51.3071 54.2974C50.8912 53.9199 49.908 52.627 49.3976 51.7965C49.1234 51.353 49.0856 51.202 49.0951 50.7301C49.1329 48.8709 51.2787 47.3987 54.852 46.7475C55.7406 46.5871 57.0451 46.4266 57.2058 46.4644C57.2626 46.4738 57.3193 47.6535 57.3571 49.6354ZM63.029 62.357C63.7663 62.6118 64.6927 63.0836 65.2599 63.5083C65.534 63.7065 65.7893 63.8764 65.846 63.8764C65.9594 63.8764 66.5172 64.5087 66.5361 64.6597C66.5361 64.7257 66.555 64.8107 66.555 64.8673C66.5644 64.9145 66.6306 65.1032 66.6968 65.2637C66.7913 65.4996 66.8858 65.5751 67.0655 65.5751C67.3112 65.5751 67.3112 65.5751 67.1222 65.7544C67.0182 65.8488 66.8764 66.0658 66.8102 66.2263C66.7346 66.3867 66.6401 66.4905 66.5833 66.4528C66.5266 66.4245 66.5172 66.4433 66.555 66.5094C66.659 66.6793 65.7987 67.9061 65.0047 68.6989C64.324 69.3784 63.6623 69.8691 62.717 70.4259L62.2633 70.6807V69.0009C62.2633 68.076 62.32 66.8114 62.3767 66.1885C62.4429 65.5657 62.4807 64.4049 62.4712 63.6121C62.4523 62.8288 62.4523 62.1776 62.4807 62.1776C62.4996 62.1776 62.7454 62.2531 63.029 62.357ZM57.7352 64.1784C57.7447 65.1787 57.773 66.9058 57.8108 68.0099C57.8392 69.1047 57.8392 70.0012 57.8014 69.9918C57.48 69.8691 56.1471 68.6611 55.6083 68.0099C54.644 66.8397 54.3226 66.1885 54.3226 65.3864C54.3226 64.839 54.3605 64.6974 54.6157 64.3105C54.9749 63.7726 55.8919 63.1119 56.8561 62.6873C57.2531 62.508 57.6123 62.3664 57.6596 62.3664C57.6974 62.3664 57.7352 63.1874 57.7352 64.1784ZM61.9797 80.6277L61.8851 81.0052L61.9324 80.6277C61.9608 80.4201 61.9891 79.8256 61.9986 79.3065L62.0175 78.3628L62.0458 79.3065C62.0647 79.8256 62.0364 80.4201 61.9797 80.6277ZM58.0755 80.1747C58.0472 80.2691 58.0283 80.1936 58.0283 80.0143C58.0283 79.835 58.0472 79.7595 58.0755 79.8444C58.0944 79.9388 58.0944 80.0898 58.0755 80.1747Z" fill="url(#paint0_linear_13_63)"/>
<path d="M66.6634 65.7314C66.6634 65.8824 66.6823 65.939 66.7107 65.8447C66.7296 65.7597 66.7296 65.6276 66.7107 65.5615C66.6823 65.5049 66.6634 65.571 66.6634 65.7314Z" fill="url(#paint1_linear_13_63)"/>
<path d="M69.9059 61.2487C70.1044 61.4563 70.2934 61.6262 70.3218 61.6262C70.3502 61.6262 70.1989 61.4563 70.0004 61.2487C69.8019 61.041 69.6128 60.8712 69.5845 60.8712C69.5561 60.8712 69.7073 61.041 69.9059 61.2487Z" fill="url(#paint2_linear_13_63)"/>
<path d="M56.1988 74.6686L55.7262 75.1688L56.2272 74.6969C56.681 74.2628 56.766 74.1779 56.6904 74.1779C56.681 74.1779 56.4541 74.4044 56.1988 74.6686Z" fill="url(#paint3_linear_13_63)"/>
<path d="M66.2853 86.9184C66.2853 87.0505 66.3042 87.0977 66.3326 87.0316C66.3515 86.975 66.3515 86.8618 66.3326 86.7957C66.3042 86.7391 66.2853 86.7863 66.2853 86.9184Z" fill="url(#paint4_linear_13_63)"/>
<path d="M65.7087 89.91C65.6141 90.1554 65.6141 90.1648 65.7465 89.995C65.8221 89.8911 65.8883 89.7779 65.8883 89.7307C65.8883 89.5891 65.8221 89.6552 65.7087 89.91Z" fill="url(#paint5_linear_13_63)"/>
<path d="M65.2171 90.665C65.0942 90.816 65.1037 90.8255 65.2549 90.7028C65.4062 90.5801 65.4535 90.5046 65.3778 90.5046C65.3589 90.5046 65.2833 90.5801 65.2171 90.665Z" fill="url(#paint6_linear_13_63)"/>
</g>
<defs>
<linearGradient id="paint0_linear_13_63" x1="81.9672" y1="77.9852" x2="39.9855" y2="-0.0246128" gradientUnits="userSpaceOnUse">
<stop offset="0.15625" stop-color="#AA771C"/>
<stop offset="0.535136" stop-color="#B38728"/>
<stop offset="1" stop-color="#FCF6BA"/>
</linearGradient>
<linearGradient id="paint1_linear_13_63" x1="66.711" y1="65.8413" x2="66.5925" y2="65.8054" gradientUnits="userSpaceOnUse">
<stop offset="0.206346" stop-color="#AA771C"/>
<stop offset="0.5625" stop-color="#B38728"/>
<stop offset="0.963542" stop-color="#FCF6BA"/>
</linearGradient>
<linearGradient id="paint2_linear_13_63" x1="70.1574" y1="61.5192" x2="69.7531" y2="60.8337" gradientUnits="userSpaceOnUse">
<stop offset="0.206346" stop-color="#AA771C"/>
<stop offset="0.5625" stop-color="#B38728"/>
<stop offset="0.963542" stop-color="#FCF6BA"/>
</linearGradient>
<linearGradient id="paint3_linear_13_63" x1="56.492" y1="75.0284" x2="55.9644" y2="74.1231" gradientUnits="userSpaceOnUse">
<stop offset="0.206346" stop-color="#AA771C"/>
<stop offset="0.5625" stop-color="#B38728"/>
<stop offset="0.963542" stop-color="#FCF6BA"/>
</linearGradient>
<linearGradient id="paint4_linear_13_63" x1="66.3329" y1="87.0203" x2="66.2188" y2="86.9786" gradientUnits="userSpaceOnUse">
<stop offset="0.206346" stop-color="#AA771C"/>
<stop offset="0.5625" stop-color="#B38728"/>
<stop offset="0.963542" stop-color="#FCF6BA"/>
</linearGradient>
<linearGradient id="paint5_linear_13_63" x1="65.8327" y1="90.0461" x2="65.5563" y2="89.7874" gradientUnits="userSpaceOnUse">
<stop offset="0.206346" stop-color="#AA771C"/>
<stop offset="0.5625" stop-color="#B38728"/>
<stop offset="0.963542" stop-color="#FCF6BA"/>
</linearGradient>
<linearGradient id="paint6_linear_13_63" x1="65.35" y1="90.7472" x2="65.1992" y2="90.4895" gradientUnits="userSpaceOnUse">
<stop offset="0.206346" stop-color="#AA771C"/>
<stop offset="0.5625" stop-color="#B38728"/>
<stop offset="0.963542" stop-color="#FCF6BA"/>
</linearGradient>
<clipPath id="clip0_13_63">
<rect width="121" height="104" fill="white"/>
</clipPath>
</defs>
</svg>
