<svg width="50" height="50" viewBox="0 0 50 50" fill="none" xmlns="http://www.w3.org/2000/svg">
<g clip-path="url(#clip0_20_9)">
<path d="M34.3229 15.671C31.85 13.1974 28.5572 11.8421 25.0529 11.8421C17.8326 11.8421 11.9479 17.6974 11.9479 24.8816C11.9479 27.1842 12.5562 29.421 13.6934 31.3947L11.8421 38.1579L18.7847 36.3421C20.7022 37.3816 22.8577 37.9342 25.0529 37.9342C32.2732 37.9342 38.1579 32.0789 38.1579 24.8947C38.1579 21.4079 36.7958 18.1316 34.3229 15.671ZM25.0529 35.7237C23.0957 35.7237 21.1782 35.1974 19.4988 34.2105L19.1021 33.9737L14.9762 35.0526L16.0738 31.0526L15.8093 30.6447C14.7249 28.921 14.1431 26.921 14.1431 24.8816C14.1431 18.9079 19.0359 14.0395 25.0397 14.0395C27.9489 14.0395 30.6863 15.171 32.736 17.2237C34.799 19.2763 35.923 22 35.923 24.8947C35.9495 30.8684 31.0566 35.7237 25.0529 35.7237ZM31.0301 27.6184C30.6995 27.4605 29.0862 26.671 28.7953 26.5526C28.4911 26.4474 28.2795 26.3947 28.0547 26.7105C27.8299 27.0395 27.2084 27.7763 27.0233 27.9868C26.8381 28.2105 26.6398 28.2368 26.3092 28.0658C25.9786 27.9079 24.9206 27.5526 23.6776 26.4474C22.699 25.5789 22.051 24.5132 21.8527 24.1842C21.6675 23.8553 21.8262 23.6842 21.9981 23.5132C22.1436 23.3684 22.3287 23.1316 22.4874 22.9474C22.6461 22.7632 22.7122 22.6184 22.818 22.4079C22.9238 22.1842 22.8709 22 22.7916 21.8421C22.7122 21.6842 22.051 20.0789 21.7865 19.421C21.5221 18.7895 21.2444 18.8684 21.046 18.8553C20.8476 18.8553 20.6361 18.8553 20.4112 18.8553C20.1864 18.8553 19.8426 18.9342 19.5385 19.2632C19.2475 19.5921 18.4012 20.3816 18.4012 21.9868C18.4012 23.5921 19.5781 25.1447 19.7368 25.3553C19.8955 25.5789 22.051 28.8684 25.3306 30.2763C26.1108 30.6184 26.7191 30.8158 27.1952 30.9605C27.9754 31.2105 28.6895 31.171 29.2581 31.0921C29.8929 31 31.202 30.3026 31.4665 29.5395C31.7442 28.7763 31.7442 28.1316 31.6517 27.9868C31.5591 27.8421 31.3607 27.7763 31.0301 27.6184Z" fill="#B38728"/>
</g>
<rect x="1" y="1" width="48" height="48" rx="4" stroke="#AA771C" stroke-width="2"/>
<defs>
<clipPath id="clip0_20_9">
<rect width="39.4737" height="39.4737" fill="white" transform="translate(5.26315 5.26318)"/>
</clipPath>
</defs>
</svg>
