<svg width="45" height="45" viewBox="0 0 45 45" fill="none" xmlns="http://www.w3.org/2000/svg">
<path d="M17.125 25.4062C12.7375 25.4062 4 27.6 4 31.9688V35.25H30.25V31.9688C30.25 27.6 21.5125 25.4062 17.125 25.4062ZM8.3875 31.5C9.9625 30.4125 13.7688 29.1562 17.125 29.1562C20.4812 29.1562 24.2875 30.4125 25.8625 31.5H8.3875ZM17.125 22.125C20.7437 22.125 23.6875 19.1812 23.6875 15.5625C23.6875 11.9438 20.7437 9 17.125 9C13.5063 9 10.5625 11.9438 10.5625 15.5625C10.5625 19.1812 13.5063 22.125 17.125 22.125ZM17.125 12.75C18.6812 12.75 19.9375 14.0063 19.9375 15.5625C19.9375 17.1187 18.6812 18.375 17.125 18.375C15.5688 18.375 14.3125 17.1187 14.3125 15.5625C14.3125 14.0063 15.5688 12.75 17.125 12.75ZM30.325 25.5188C32.5 27.0938 34 29.1937 34 31.9688V35.25H41.5V31.9688C41.5 28.1813 34.9375 26.025 30.325 25.5188ZM28.375 22.125C31.9937 22.125 34.9375 19.1812 34.9375 15.5625C34.9375 11.9438 31.9937 9 28.375 9C27.3625 9 26.425 9.24375 25.5625 9.65625C26.7437 11.325 27.4375 13.3688 27.4375 15.5625C27.4375 17.7562 26.7437 19.8 25.5625 21.4687C26.425 21.8812 27.3625 22.125 28.375 22.125Z" fill="url(#paint0_linear_13_93)"/>
<defs>
<linearGradient id="paint0_linear_13_93" x1="40" y1="35" x2="10.3845" y2="15.1358" gradientUnits="userSpaceOnUse">
<stop offset="0.122845" stop-color="#AA771C"/>
<stop offset="0.535136" stop-color="#B38728"/>
<stop offset="0.963542" stop-color="#FCF6BA"/>
</linearGradient>
</defs>
</svg>
